<?xml version="1.0" encoding="UTF-8" standalone="no"?>
<svg
   width="800mm"
   height="800mm"
   viewBox="0 0 800 800"
   version="1.1"
   id="svg840"
   sodipodi:docname="favico.svg"
   inkscape:version="1.1.2 (b8e25be8, 2022-02-05)"
   xmlns:inkscape="http://www.inkscape.org/namespaces/inkscape"
   xmlns:sodipodi="http://sodipodi.sourceforge.net/DTD/sodipodi-0.dtd"
   xmlns="http://www.w3.org/2000/svg"
   xmlns:svg="http://www.w3.org/2000/svg">
  <defs
     id="defs844" />
  <sodipodi:namedview
     id="namedview842"
     pagecolor="#ffffff"
     bordercolor="#666666"
     borderopacity="1.0"
     inkscape:pageshadow="2"
     inkscape:pageopacity="1"
     inkscape:pagecheckerboard="true"
     inkscape:document-units="mm"
     showgrid="false"
     inkscape:zoom="0.13995495"
     inkscape:cx="3919.1183"
     inkscape:cy="1529.0635"
     inkscape:window-width="1440"
     inkscape:window-height="762"
     inkscape:window-x="0"
     inkscape:window-y="25"
     inkscape:window-maximized="0"
     inkscape:current-layer="svg840" />
  <rect
     style="fill:#575959;fill-opacity:1;stroke:none;stroke-width:6.21831"
     id="rect3467"
     width="922.55884"
     height="852.61066"
     x="-37.809742"
     y="-20.795383" />
  <path
     d="M401.655 779.697L20.13 401.087 401.655 22.476l381.524 378.611zm0 0"
     fill="#575959"
     id="path824" />
  <path
     d="M30.416 401.087l371.239 368.404 371.24-368.404-371.24-368.403zm371.239 388.82L9.843 401.086l391.812-388.82 391.812 388.82zm0 0"
     fill="#f8f8f8"
     id="path826" />
  <path
     d="M401.655 744.263L55.838 401.087 401.655 57.912l345.817 343.175zm0 0"
     fill="#575959"
     id="path828" />
  <path
     d="M60.98 401.087L401.656 739.16 742.33 401.087 401.655 63.016zm340.675 348.28l-350.96-348.28 350.96-348.28 350.959 348.28zm0 0"
     fill="#f57a3f"
     id="path830" />
  <path
     d="M131.45 470.931l521.05-158.86 66.492 65.823L197.222 536.2zm0 0"
     fill="#3a3a3a"
     id="path832" />
  <path
     d="M629.493 451.248c-.583-.876-.984-2.076-1.812-2.547-6.718-3.86-6.234-10.878-7.61-16.994-9.906-44.18-24.795-86.464-48.11-125.575a7.123 7.123 0 01-1.086-4.05c.09-4.022-.939-7.722-3.82-10.737.054-.656.522-1.08.016-2-5.62-10.253-11.743-20.13-19.987-28.572-10.511-12.125-23.034-21.75-37.191-29.335-2.357-1.87-5.11-2.987-7.888-4.025-12.647-6.954-26.244-11.441-40.254-14.542-56.169-12.428-110.5-6.694-162.877 16.994-2.474 1.108-4.811 2.496-7.219 3.76-15.971 7.935-30.278 18.15-42.604 30.998-1.242 1.293-2.601 2.646-2.675 4.649-2.283 4.146-1.69 7.292 1.656 8.785 1.038 3.678-1.465 6.149-3.187 8.827-15.552 24.282-26.356 50.332-29.721 79.104-2.736 23.366 0 46.28 6.406 68.81 6.588 23.143 16.561 44.897 28.008 66.008 4.573 8.429 12.676 11.091 21.353 12.377 35.886 5.302 71.781 10.464 107.677 15.641 33.56 4.834 67.119 9.59 100.67 14.44 22.564 3.248 45.114 6.61 67.664 9.862 18.125 2.601 36.252 5.139 54.386 7.645 5.668.78 10.441-.94 12.89-6.254 8.371-18.181 17.545-36.073 22.162-55.713 3.916-16.685 2.945-32.772-6.846-47.556"
     fill="#f8f8f8"
     fill-rule="evenodd"
     id="path834" />
  <path
     d="M575.212 444.217c11.896 0 23.783-.054 35.666.048 2.56.022 3.627-.115 2.984-3.29-9.323-45.533-24.21-89.029-47.648-129.436-1.306-2.245-2.347-2.87-5.136-2.124-13.183 3.47-26.716 4.71-40.293 5.582-30.463 1.942-60.977.745-91.456 1.516-22.837.58-38.538 19.439-33.985 41.792 6.48 31.803 25.85 53.465 55.179 66.791 20.12 9.152 41.585 13.215 63.403 15.714 20.354 2.328 40.806 3.146 61.286 3.407"
     fill="#3a3a3a"
     fill-rule="evenodd"
     id="path836" />
  <path
     d="M229.442 288.37c-82.04-6.48-181.931-11.252-216.954-76.305-2.729 16.341-19.55 89.921 86.151 118.547-5.477.34-61.079-5.458-75.847-15.504 4.12 13.781 18.889 72.412 125.979 80.882-16.475 3.079-39.493 11.93-81.356 3.754 8.91 7.836 61.082 58.955 130.755 36.108 69.683-22.824 109.851-51.434 153.446-17.697.022.013-40.133-123.308-122.174-129.787"
     fill="#f57a3f"
     stroke-width="6"
     stroke="#fff"
     id="path838" />
</svg>
