<svg width="800mm" height="800mm" viewBox="0 0 800 800" xmlns="http://www.w3.org/2000/svg"><path d="M774.024 496.408c-.734-1.104-1.239-2.62-2.284-3.212-8.474-4.87-7.864-13.72-9.599-21.434-12.494-55.726-31.273-109.057-60.68-158.388a8.984 8.984 0 01-1.37-5.11c.113-5.072-1.184-9.739-4.82-13.542.07-.828.659-1.362.02-2.523-7.089-12.932-14.811-25.39-25.21-36.037-13.256-15.294-29.052-27.435-46.91-37-2.972-2.358-6.445-3.769-9.947-5.077-15.953-8.772-33.101-14.431-50.773-18.343-70.846-15.675-139.374-8.442-205.437 21.434-3.12 1.398-6.069 3.149-9.105 4.744-20.146 10.008-38.19 22.893-53.736 39.098-1.567 1.63-3.282 3.337-3.375 5.863-2.88 5.23-2.132 9.197 2.089 11.081 1.31 4.639-1.848 7.755-4.02 11.133-19.616 30.627-33.243 63.484-37.488 99.775-3.45 29.471 0 58.37 8.081 86.79 8.31 29.19 20.888 56.63 35.326 83.256 5.768 10.631 15.989 13.988 26.933 15.612 45.263 6.687 90.537 13.198 135.812 19.727 42.331 6.096 84.658 12.098 126.977 18.214 28.459 4.096 56.902 8.337 85.346 12.438 22.86 3.281 45.723 6.483 68.596 9.642 7.148.985 13.17-1.183 16.258-7.887 10.557-22.933 22.128-45.5 27.953-70.271 4.939-21.045 3.715-41.336-8.636-59.983" fill="#f8f8f8" fill-rule="evenodd" stroke="#fff" stroke-width="7.556"/><path d="M729.008 474.536c15.005 0 29.997-.068 44.985.06 3.229.028 4.575-.145 3.764-4.15-11.76-57.43-30.535-112.292-60.1-163.258-1.646-2.831-2.96-3.618-6.478-2.679-16.627 4.378-33.695 5.94-50.82 7.04-38.423 2.45-76.911.94-115.354 1.912-28.805.73-48.608 24.52-42.866 52.713 8.174 40.114 32.605 67.437 69.598 84.244 25.378 11.543 52.452 16.668 79.97 19.82 25.673 2.936 51.468 3.968 77.3 4.298" fill="#3a3a3a" fill-rule="evenodd" stroke="#fff" stroke-width="7.556"/><path d="M292.887 277.966c-103.478-8.173-229.47-14.193-273.645-96.244C15.8 202.332-5.416 295.14 127.905 331.245c-6.908.43-77.039-6.883-95.667-19.555 5.197 17.383 23.824 91.333 158.898 102.016-20.78 3.884-49.812 15.049-102.614 4.735 11.237 9.885 77.043 74.36 164.922 45.544 87.89-28.789 138.554-64.874 193.541-22.322.028.017-50.62-155.529-154.098-163.702" fill="#f57a3f" stroke="#fff" stroke-width="7.556"/></svg>