<svg width="800mm" height="800mm" viewBox="0 0 800 800" xmlns="http://www.w3.org/2000/svg"><path d="M401.655 779.697L20.13 401.087 401.655 22.476l381.524 378.611zm0 0" fill="#575959"/><path d="M30.416 401.087l371.239 368.404 371.24-368.404-371.24-368.403zm371.239 388.82L9.843 401.086l391.812-388.82 391.812 388.82zm0 0" fill="#f8f8f8"/><path d="M401.655 744.263L55.838 401.087 401.655 57.912l345.817 343.175zm0 0" fill="#575959"/><path d="M60.98 401.087L401.656 739.16 742.33 401.087 401.655 63.016zm340.675 348.28l-350.96-348.28 350.96-348.28 350.959 348.28zm0 0" fill="#f57a3f"/><path d="M131.45 470.931l521.05-158.86 66.492 65.823L197.222 536.2zm0 0" fill="#3a3a3a"/><path d="M401.613 100.506c-5.274 0-9.562 4.255-9.562 9.486 0 5.23 4.288 9.485 9.562 9.485 5.269 0 9.557-4.255 9.557-9.485 0-5.23-4.288-9.486-9.557-9.486m0 26.19c-9.284 0-16.836-7.494-16.836-16.704 0-9.211 7.552-16.706 16.836-16.706 9.28 0 16.83 7.495 16.83 16.706 0 9.21-7.55 16.703-16.83 16.703M401.655 681.445c-5.268 0-9.557 4.26-9.557 9.486 0 5.235 4.29 9.488 9.557 9.488 5.268 0 9.558-4.253 9.558-9.488 0-5.226-4.29-9.486-9.558-9.486m0 26.193c-9.279 0-16.83-7.494-16.83-16.707 0-9.206 7.551-16.702 16.83-16.702 9.28 0 16.831 7.496 16.831 16.702 0 9.213-7.552 16.707-16.831 16.707M200.151 351.987c1.156 0 2.185.218 3.052.645.87.437 1.554.998 2.088 1.726.532.721.89 1.582 1.063 2.56.173.989.099 2.084-.219 3.256a10.363 10.363 0 01-1.617 3.388 13.59 13.59 0 01-2.692 2.816 12.678 12.678 0 01-3.321 1.876c-1.166.44-2.37.663-3.574.663h-11.387l4.573-16.93zm-18.22 22.905h12.036c1.956 0 3.936-.378 5.877-1.126a20.45 20.45 0 005.321-3.006 21.104 21.104 0 004.223-4.429 17.467 17.467 0 002.626-5.536c.537-1.995.662-3.909.369-5.691-.295-1.796-.943-3.384-1.932-4.728-.993-1.345-2.315-2.42-3.927-3.2-1.603-.776-3.422-1.166-5.408-1.166h-17.43l-13.964 51.722h6.044zm0 0M210.455 397.732l13.964-51.722h-6.039l-13.964 51.722zm0 0M248.474 397.732l1.593-5.91H222.03l12.35-45.746h-6.039l-13.945 51.656zm0 0M262.629 379.999l4.184-15.495c.478-1.783 1.291-3.493 2.413-5.081a20.676 20.676 0 013.997-4.23 19.036 19.036 0 014.983-2.85 14.982 14.982 0 015.424-1.03c1.753 0 3.32.332 4.667.99 1.337.65 2.429 1.546 3.252 2.66.824 1.125 1.375 2.458 1.63 3.968.253 1.527.143 3.195-.331 4.947l-4.184 15.495a15.95 15.95 0 01-2.414 5.075 20.171 20.171 0 01-4.025 4.23 19.471 19.471 0 01-5.021 2.855c-3.538 1.368-7.405 1.351-10.093.04-1.33-.649-2.41-1.54-3.208-2.65-.81-1.124-1.349-2.464-1.603-3.978-.256-1.525-.147-3.191.329-4.947m-3.91 12.828c1.286 1.75 3.005 3.144 5.104 4.145 2.08.997 4.46 1.502 7.075 1.502 2.583 0 5.173-.494 7.705-1.464a26.787 26.787 0 006.963-3.949 27.74 27.74 0 005.556-5.847c1.582-2.247 2.73-4.672 3.418-7.215l4.184-15.494c.691-2.57.854-5.039.478-7.346-.383-2.308-1.227-4.362-2.513-6.11-1.289-1.746-2.99-3.14-5.061-4.14-4.089-1.979-9.636-1.997-14.781-.042a26.851 26.851 0 00-7.005 3.95 27.645 27.645 0 00-5.556 5.849c-1.576 2.239-2.728 4.666-3.415 7.213l-4.18 15.495c-.698 2.58-.863 5.05-.484 7.346.383 2.317 1.23 4.374 2.512 6.107M336.738 352.188l1.593-5.91h-35.433l-1.597 5.91h14.664l-12.296 45.544h6.106l12.299-45.544zm0 0M336.066 373.026l2.288-8.456c.483-1.79 1.296-3.497 2.413-5.08a20.452 20.452 0 013.997-4.23 19.006 19.006 0 014.977-2.848c3.467-1.34 7.338-1.387 10.093-.044 1.354.658 2.416 1.533 3.256 2.666.825 1.117 1.372 2.453 1.625 3.96.256 1.536.146 3.201-.329 4.95l-2.452 9.082zm-3.655-9.082l-9.121 33.788h6.109l5.074-18.797h25.867l-5.075 18.797h6.04l8.953-33.162c.697-2.58.859-5.054.48-7.347-.384-2.31-1.226-4.367-2.508-6.104-1.289-1.749-2.992-3.143-5.065-4.145-4.097-1.978-9.63-1.998-14.777-.043a26.811 26.811 0 00-7.005 3.952 27.621 27.621 0 00-5.557 5.847c-1.577 2.24-2.73 4.667-3.415 7.214M371.827 397.732l8.955-33.162c.48-1.786 1.293-3.495 2.415-5.08a20.263 20.263 0 013.995-4.228 19.002 19.002 0 014.98-2.85c3.477-1.34 7.343-1.387 10.094-.044 1.335.651 2.43 1.547 3.254 2.665.824 1.118 1.374 2.453 1.626 3.962.253 1.533.143 3.196-.332 4.949l-9.12 33.788h6.043l8.956-33.162c.695-2.58.853-5.054.477-7.345-.385-2.317-1.23-4.372-2.51-6.109-1.293-1.75-2.998-3.14-5.066-4.142-4.088-1.978-9.63-1.998-14.748-.043a27.044 27.044 0 00-6.967 3.953 27.624 27.624 0 00-5.555 5.846c-1.576 2.24-2.726 4.667-3.415 7.214l-9.12 33.789zm0 0M438.083 352.053c1.754 0 3.336.335 4.705.993 1.353.648 2.45 1.531 3.257 2.622.808 1.105 1.344 2.437 1.59 3.965.251 1.548.137 3.224-.339 4.988l-3.798 14.08a15.95 15.95 0 01-2.415 5.075 20.461 20.461 0 01-3.995 4.233 18.838 18.838 0 01-5.01 2.847c-1.797.685-3.612 1.034-5.4 1.034h-11.32l10.759-39.837zM407.708 397.8h18.023c2.586 0 5.188-.49 7.732-1.46a26.862 26.862 0 007.004-3.953 27.688 27.688 0 005.558-5.846 23.019 23.019 0 003.418-7.22l3.795-14.076c.7-2.581.86-5.053.48-7.344-.377-2.303-1.215-4.366-2.492-6.139-1.288-1.772-3.004-3.18-5.099-4.186-2.087-.994-4.47-1.5-7.079-1.5H421.69l-13.554 50.198zm0 0M458.9 379.999l4.18-15.495c.48-1.783 1.294-3.493 2.415-5.081a20.52 20.52 0 013.996-4.23 18.958 18.958 0 014.98-2.85 14.982 14.982 0 015.43-1.03c1.748 0 3.317.332 4.664.99 1.337.654 2.432 1.546 3.252 2.66.824 1.125 1.373 2.458 1.627 3.968.253 1.527.143 3.195-.331 4.947l-4.183 15.495c-.48 1.784-1.291 3.491-2.415 5.078a20.12 20.12 0 01-4.02 4.227 19.618 19.618 0 01-5.026 2.855c-3.535 1.371-7.41 1.348-10.089.04-1.331-.649-2.412-1.54-3.212-2.648-.81-1.13-1.35-2.47-1.6-3.982-.259-1.517-.147-3.18.331-4.945m-6.423 6.72c.38 2.318 1.225 4.374 2.51 6.108 1.29 1.75 3.006 3.147 5.102 4.145 2.082.997 4.46 1.502 7.078 1.502 2.58 0 5.17-.494 7.702-1.464a26.876 26.876 0 006.967-3.949 27.436 27.436 0 005.55-5.847 22.814 22.814 0 003.42-7.215l4.187-15.494c.693-2.581.853-5.053.477-7.346-.386-2.317-1.232-4.373-2.514-6.11-1.29-1.746-2.992-3.14-5.061-4.14-4.095-1.983-9.644-1.997-14.782-.042a26.86 26.86 0 00-7.005 3.95 27.574 27.574 0 00-5.55 5.849 22.772 22.772 0 00-3.42 7.213l-4.18 15.495c-.7 2.58-.864 5.053-.48 7.346M186.838 417.517c1.056 0 1.989.2 2.767.587.792.393 1.412.905 1.895 1.558.49.665.805 1.428.963 2.329.156.896.092 1.893-.198 2.96a9.592 9.592 0 01-1.473 3.092 12.56 12.56 0 01-2.471 2.58c-.928.73-1.95 1.307-3.038 1.714a9.148 9.148 0 01-3.26.607h-10.38l4.165-15.427zm8.59 13.19a15.968 15.968 0 002.434-5.136c.503-1.852.62-3.63.349-5.288-.272-1.667-.878-3.146-1.798-4.398-.923-1.25-2.15-2.258-3.658-2.984-1.49-.719-3.182-1.085-5.027-1.085H171.58l-12.93 47.889h5.765l5.69-21.064h11.026c1.82 0 3.654-.349 5.454-1.043a19.011 19.011 0 004.936-2.784 19.715 19.715 0 003.906-4.107M228.64 428.427l-2.24 8.304h-23.66l2.072-7.677a14.765 14.765 0 012.214-4.654 18.893 18.893 0 013.668-3.884 17.378 17.378 0 014.57-2.615c3.163-1.222 6.716-1.263 9.23-.044 1.217.594 2.217 1.413 2.967 2.43.753 1.017 1.249 2.237 1.483 3.62.233 1.395.133 2.916-.304 4.52m6.043-6.185c-.35-2.146-1.135-4.057-2.33-5.674-1.195-1.625-2.78-2.92-4.705-3.853-3.8-1.837-8.946-1.849-13.706-.04a24.836 24.836 0 00-6.485 3.658 25.563 25.563 0 00-5.141 5.411 21.278 21.278 0 00-3.165 6.683l-8.444 31.278h5.829l4.685-17.334h23.66l-4.685 17.334h5.769l8.278-30.654c.64-2.395.791-4.687.44-6.81M257.9 417.517c1.056 0 1.99.2 2.771.587.789.393 1.409.902 1.895 1.558.49.665.804 1.428.96 2.324.159.907.093 1.903-.194 2.964a9.802 9.802 0 01-1.475 3.093c-.699.975-1.53 1.84-2.47 2.58a11.409 11.409 0 01-3.04 1.714 9.154 9.154 0 01-3.26.607h-10.316l4.164-15.427zm1.46 19.322a19.46 19.46 0 004.2-2.82 18.157 18.157 0 003.321-3.858 16.39 16.39 0 002.046-4.59c.503-1.852.62-3.63.35-5.288-.274-1.667-.88-3.146-1.801-4.398-.924-1.25-2.14-2.255-3.618-2.981-1.475-.722-3.177-1.088-5.068-1.088h-16.082l-12.932 47.889h5.77l5.687-21.064h8.81l3.45 21.064h6.025l-3.501-21.617a17.404 17.404 0 003.344-1.25M301.207 428.427l-2.24 8.304h-23.66l2.071-7.677a14.796 14.796 0 012.214-4.654 18.931 18.931 0 013.668-3.884 17.371 17.371 0 014.572-2.615c3.163-1.222 6.713-1.263 9.228-.044 1.216.594 2.217 1.413 2.967 2.43.753 1.017 1.25 2.237 1.483 3.62.234 1.395.133 2.916-.303 4.52m3.713-11.859c-1.196-1.625-2.781-2.92-4.706-3.853-3.802-1.837-8.945-1.849-13.705-.04a24.844 24.844 0 00-6.486 3.658 25.635 25.635 0 00-5.141 5.411 21.279 21.279 0 00-3.165 6.683l-8.444 31.278h5.829l4.685-17.334h23.66l-4.685 17.334h5.769l8.278-30.654c.643-2.395.791-4.687.44-6.81-.35-2.145-1.135-4.056-2.33-5.673" fill="#f8f8f8"/><path d="M403.6 414.226l-24.007 34.268a2372.191 2372.191 0 00-19.05 27.053 3294.017 3294.017 0 01-15.637 22.318c-.452-2.746-.9-5.445-1.344-8.092a1040.73 1040.73 0 01-2.154-13.301 608.585 608.585 0 00-2.205-13.238 830.616 830.616 0 01-2.325-13.73l-5.667-35.278H312.27l18.125 111.162h14.99l78.157-111.162zm0 0M427.375 413.639l-30.172 111.749h17.864l30.173-111.75zm0 0M465.02 507.977h-20.604l20.65-76.487h21.91c3.247 0 6.156.61 8.64 1.805 2.472 1.196 4.503 2.832 6.039 4.849 1.526 2.016 2.532 4.446 2.99 7.216.463 2.835.25 5.92-.628 9.175l-7.834 29.007c-.894 3.314-2.396 6.483-4.46 9.423a37.047 37.047 0 01-7.453 7.84 36.012 36.012 0 01-9.312 5.285c-3.27 1.255-6.613 1.887-9.939 1.887m56.52-52.197c1.537-5.69 1.887-11.132 1.045-16.177-.846-5.088-2.697-9.602-5.505-13.406-2.813-3.815-6.55-6.87-11.113-9.09-4.533-2.205-9.753-3.321-15.51-3.321h-38.474L421.94 525.058l39.614.477h.029c5.686 0 11.4-1.09 16.981-3.241a59.513 59.513 0 0015.353-8.703 61.124 61.124 0 0012.244-12.888c3.493-4.942 6.03-10.298 7.544-15.916zm0 0M588.268 431.833c2.491 1.201 4.45 2.802 5.996 4.898 1.528 2.07 2.534 4.53 2.991 7.313.464 2.819.252 5.909-.63 9.172l-4.303 15.946h-47.825l3.965-14.701c.9-3.324 2.4-6.498 4.462-9.423a36.927 36.927 0 017.452-7.842 36.195 36.195 0 019.312-5.285c6.469-2.478 13.563-2.505 18.58-.078m26.929 6.454c-.846-5.094-2.697-9.606-5.506-13.408-2.813-3.819-6.552-6.876-11.11-9.088-4.535-2.205-9.757-3.324-15.517-3.324-5.784 0-11.548 1.09-17.128 3.239a59.738 59.738 0 00-15.353 8.702 61.261 61.261 0 00-12.246 12.889c-3.488 4.945-6.026 10.296-7.55 15.919l-19.484 72.172h18.01l10.443-38.673h47.824l-10.443 38.673h17.866l19.15-70.924c1.534-5.668 1.884-11.11 1.044-16.177" fill="#f57a3f"/><path d="M359.985 307.682h4.621c1.914-.044 3.554-.688 4.917-1.929 1.364-1.235 2.092-2.75 2.188-4.53.117-1.875-.503-3.516-1.856-4.915-1.356-1.401-3.032-2.149-5.039-2.24h-4.83zm4.864-14.588c2.288.115 4.2.975 5.739 2.571 1.426 1.46 2.136 3.161 2.136 5.107 0 .16-.01.333-.033.519-.094 2.037-.919 3.762-2.467 5.177-1.554 1.41-3.414 2.14-5.583 2.185h-4.656v14.104a.49.49 0 01-.137.347.492.492 0 01-.352.136.475.475 0 01-.491-.483v-29.21c0-.231.119-.385.35-.453zm0 0M375.315 308.585a.48.48 0 01.491.486v2.5a6.439 6.439 0 012.08-2.12 5.42 5.42 0 012.786-.83h.173c.138 0 .256.046.351.137a.44.44 0 01.138.313c0 .138-.048.261-.138.368a.465.465 0 01-.351.154h-.142c-1.283.024-2.392.526-3.323 1.512-.933.982-1.46 2.182-1.574 3.592v8.267a.492.492 0 01-.141.332.455.455 0 01-.35.156.463.463 0 01-.35-.156.5.5 0 01-.139-.332v-13.927c0-.256.129-.405.385-.452zm0 0M384.379 316.017c0 1.76.626 3.263 1.876 4.498 1.246 1.24 2.75 1.857 4.512 1.857 1.762 0 3.258-.616 4.499-1.857 1.237-1.235 1.852-2.738 1.852-4.498 0-1.757-.615-3.257-1.852-4.498-1.24-1.238-2.737-1.855-4.499-1.855-1.761 0-3.266.617-4.512 1.855-1.25 1.24-1.876 2.74-1.876 4.498m13.687 0c0 2.04-.711 3.769-2.136 5.194-1.42 1.422-3.14 2.136-5.144 2.136-2.032 0-3.764-.714-5.2-2.136-1.435-1.425-2.149-3.154-2.149-5.194 0-2.014.714-3.738 2.15-5.173 1.435-1.437 3.167-2.154 5.199-2.154 2.005 0 3.724.717 5.144 2.154 1.425 1.435 2.136 3.16 2.136 5.173M404.837 304.522c.2.186.298.404.298.658 0 .28-.098.516-.298.715a.963.963 0 01-.699.295.902.902 0 01-.683-.295.966.966 0 01-.28-.696c0-.267.09-.491.28-.677a.95.95 0 01.702-.278c.255 0 .481.093.68.278m-.68 4.55a.51.51 0 01.331.137c.102.092.156.21.156.349V329.6c-.047 1.04-.455 1.932-1.223 2.673-.748.716-1.625 1.076-2.628 1.076h-.137a.49.49 0 01-.332-.141.43.43 0 01-.161-.345.44.44 0 01.161-.349.497.497 0 01.332-.137h.033c.773 0 1.45-.268 2.033-.799a2.819 2.819 0 00.94-1.978v-.038l-.031-.051.031-.054v-19.864l-.031-.035c0-.257.127-.416.381-.487zm0 0M409.617 311.78a6.045 6.045 0 00-1.402 3.51h12.634c-.138-1.806-.908-3.278-2.312-4.415-1.187-.97-2.543-1.445-4.058-1.424-1.985 0-3.603.779-4.862 2.329m9.552-1.665a6.975 6.975 0 011.928 2.377c.463.938.718 1.942.766 3.003a.33.33 0 01-.033.142v.068l.033.07a.47.47 0 01-.138.345.469.469 0 01-.35.142h-13.16c.141 1.827.909 3.323 2.309 4.478 1.38 1.113 2.934 1.581 4.677 1.407 1.736-.173 3.152-.942 4.247-2.31a.48.48 0 01.388-.173c.138 0 .256.048.35.142.09.09.138.205.138.346 0 .09-.033.184-.105.278-1.283 1.575-2.926 2.453-4.935 2.636a9.449 9.449 0 01-.805.038c-1.68 0-3.195-.544-4.55-1.632a6.94 6.94 0 01-1.976-2.52 7.706 7.706 0 01-.72-3.073v-.242c.025-1.692.565-3.185 1.61-4.481 1.26-1.552 2.91-2.434 4.936-2.64.166 0 .399-.012.7-.035 1.796 0 3.363.543 4.69 1.634M425.854 301.812c.14 0 .261.047.367.14a.44.44 0 01.159.347l-.036.032v6.359h3.64c.138 0 .255.048.35.137.09.094.138.198.138.315a.543.543 0 01-.137.363.463.463 0 01-.35.159h-3.641v11.773l.035.05-.035.052c.022.21.164.394.42.557.304.186.686.276 1.156.276.44 0 .829-.102 1.156-.312.278-.183.416-.37.416-.554v-.034c0-.234.108-.385.317-.454a.425.425 0 01.176-.033c.137 0 .254.047.35.138.09.092.137.21.137.349v.034c0 .532-.279.983-.838 1.354-.488.323-1.061.487-1.714.487-.655 0-1.212-.152-1.682-.453-.445-.28-.71-.66-.805-1.146a1.5 1.5 0 00-.071-.174v-11.91h-.907a.479.479 0 01-.49-.49.51.51 0 01.122-.328.366.366 0 01.295-.156h.98v-6.391c0-.23.119-.38.35-.451l.071-.036zm0 0M433.517 316.017c0 1.76.624 3.263 1.876 4.498 1.245 1.24 2.75 1.857 4.513 1.857 1.762 0 3.258-.616 4.498-1.857 1.238-1.235 1.852-2.738 1.852-4.498 0-1.757-.614-3.257-1.852-4.498-1.24-1.238-2.736-1.855-4.498-1.855s-3.268.617-4.513 1.855c-1.252 1.24-1.876 2.74-1.876 4.498m13.686 0c0 2.04-.708 3.769-2.136 5.194-1.42 1.422-3.14 2.136-5.141 2.136-2.032 0-3.765-.714-5.2-2.136-1.436-1.425-2.15-3.154-2.15-5.194 0-2.014.714-3.738 2.15-5.173 1.435-1.437 3.168-2.154 5.2-2.154 2.002 0 3.72.717 5.141 2.154 1.428 1.435 2.136 3.16 2.136 5.173M337.745 313.023H171.458v-.901h166.287zm0 0" fill="#f8f8f8"/><path d="M171.76 312.721h165.684v-.299H171.76zm166.288.603H171.155v-1.503h166.893zm0 0" fill="#fff"/><path d="M624.88 313.023H458.589v-.901H624.88zm0 0" fill="#f8f8f8"/><path d="M458.89 312.721h165.688v-.299H458.89zm166.294.603h-166.9v-1.503h166.9zm0 0" fill="#fff"/><path d="M501.019 246.74c-.183-.275-.309-.652-.569-.8-2.11-1.212-1.958-3.416-2.39-5.337-3.111-13.875-7.787-27.154-15.109-39.437a2.237 2.237 0 01-.341-1.272c.028-1.263-.295-2.425-1.2-3.372.017-.206.164-.339.005-.628-1.765-3.22-3.688-6.322-6.277-8.973-3.301-3.808-7.234-6.831-11.68-9.213-.74-.587-1.605-.938-2.477-1.264-3.972-2.184-8.242-3.593-12.642-4.567-17.64-3.903-34.703-2.102-51.152 5.337-.777.348-1.511.784-2.267 1.181-5.016 2.492-9.509 5.7-13.38 9.735-.39.406-.817.831-.84 1.46-.717 1.302-.531 2.29.52 2.759.326 1.155-.46 1.931-1.001 2.772-4.884 7.626-8.277 15.807-9.334 24.843-.859 7.338 0 14.534 2.012 21.61 2.069 7.268 5.201 14.1 8.796 20.73 1.436 2.647 3.981 3.483 6.706 3.887 11.27 1.665 22.543 3.286 33.816 4.912 10.54 1.518 21.079 3.012 31.616 4.535 7.086 1.02 14.168 2.076 21.25 3.097 5.692.817 11.385 1.614 17.08 2.401 1.78.245 3.279-.295 4.048-1.964 2.629-5.71 5.51-11.329 6.96-17.497 1.23-5.24.925-10.292-2.15-14.935" fill="#f8f8f8" fill-rule="evenodd"/><path d="M483.972 244.532c3.736 0 7.469-.017 11.201.015.804.007 1.139-.036.937-1.033-2.928-14.3-7.603-27.96-14.964-40.65-.41-.705-.737-.901-1.613-.667-4.14 1.09-8.39 1.479-12.654 1.753-9.567.61-19.15.234-28.722.476-7.172.182-12.103 6.105-10.673 13.125 2.035 9.988 8.118 16.791 17.329 20.976 6.319 2.874 13.06 4.15 19.912 4.935 6.392.731 12.815.988 19.247 1.07" fill="#3a3a3a" fill-rule="evenodd"/><path d="M375.382 195.588c-25.765-2.035-57.136-3.534-68.135-23.964-.857 5.132-6.14 28.24 27.056 37.23-1.72.107-19.182-1.714-23.82-4.869 1.294 4.328 5.932 22.741 39.564 25.401-5.174.967-12.403 3.747-25.55 1.179 2.798 2.461 19.183 18.515 41.064 11.34 21.884-7.168 34.499-16.153 48.19-5.558.007.004-12.604-38.725-38.369-40.76" fill="#3a3a3a"/><path d="M349.128 615.958H331.6v-17.642l-1.467-1.354 1.467-1.381v-17.64h7.092v17.64l1.492 1.38-1.492 1.355v10.625h10.437zm0 0M352.542 608.941h7.076v7.017h-7.076zm0 0M370.104 593.427h7.337v-8.492h-7.337zm15.704 22.53h-7.585l-6.025-15.487h-2.094v15.488h-7.098v-38.016h16.997l4.511 3.991v13.961l-4.83 4.48zm-22.802-17.641l-1.463-1.354 1.463-1.381zm0 0M389.221 608.941h7.07v7.017h-7.07zm0 0M426.19 615.958h-7.095V594.54l-6.172 13.067-6.144-13.067v21.418h-7.07v-17.642l-1.49-1.354 1.49-1.381v-17.64h7.07l6.144 13.068 6.172-13.067h7.096v17.639l1.462 1.38-1.462 1.355zm0 0M429.582 608.941h7.07v7.017h-7.07zm0 0M461.822 611.989l-4.632 3.97h-12.61l-4.513-3.97v-13.673l-1.487-1.354 1.487-1.381v-13.648l4.513-3.991h12.61l4.632 4.016v5.853h-7.074v-2.853h-7.61v10.623l1.489 1.38-1.49 1.355v10.625h7.611v-3.075h7.074zm0 0M465.235 608.941h7.072v7.017h-7.072zm0 0" fill="#f8f8f8"/></svg>